<?xml version="1.0" encoding="UTF-8" standalone="no"?>
<svg
   xmlns:dc="http://purl.org/dc/elements/1.1/"
   xmlns:cc="http://creativecommons.org/ns#"
   xmlns:rdf="http://www.w3.org/1999/02/22-rdf-syntax-ns#"
   xmlns:svg="http://www.w3.org/2000/svg"
   xmlns="http://www.w3.org/2000/svg"
   xmlns:xlink="http://www.w3.org/1999/xlink"
   xmlns:sodipodi="http://sodipodi.sourceforge.net/DTD/sodipodi-0.dtd"
   xmlns:inkscape="http://www.inkscape.org/namespaces/inkscape"
   viewBox="0 0 512 512"
   id="svg8480"
   version="1.1"
   inkscape:version="0.48.4 r9939"
   width="100%"
   height="100%"
   sodipodi:docname="arrow.svg">
  <metadata
     id="metadata8492">
    <rdf:RDF>
      <cc:Work
         rdf:about="">
        <dc:format>image/svg+xml</dc:format>
        <dc:type
           rdf:resource="http://purl.org/dc/dcmitype/StillImage" />
      </cc:Work>
    </rdf:RDF>
  </metadata>
  <defs
     id="defs8490">
    <linearGradient
       inkscape:collect="always"
       xlink:href="#SVGID_64_"
       id="linearGradient5080"
       gradientUnits="userSpaceOnUse"
       gradientTransform="matrix(0.11225893,0.09311821,0.09825989,-0.10638471,-48.829145,116.59433)"
       x1="-175.71809"
       y1="866.90271"
       x2="60.86042"
       y2="866.90271" />
    <linearGradient
       y2="610.00049"
       x2="252.082"
       y1="584.55811"
       x1="231.0127"
       gradientUnits="userSpaceOnUse"
       id="SVGID_64_">
      <stop
         id="stop613"
         style="stop-color:#00ff00;stop-opacity:1;"
         offset="0" />
      <stop
         id="stop615"
         style="stop-color:#00ca00;stop-opacity:1;"
         offset="0.5" />
      <stop
         id="stop617"
         style="stop-color:#005f00;stop-opacity:1;"
         offset="1" />
    </linearGradient>
    <linearGradient
       inkscape:collect="always"
       xlink:href="#SVGID_64_-7"
       id="linearGradient5082"
       gradientUnits="userSpaceOnUse"
       gradientTransform="matrix(-0.11225893,-0.09311821,-0.09825989,0.10638471,97.219649,-79.066769)"
       x1="-175.71809"
       y1="866.90271"
       x2="60.86042"
       y2="866.90271" />
    <linearGradient
       y2="610.00049"
       x2="252.082"
       y1="584.55811"
       x1="231.0127"
       gradientUnits="userSpaceOnUse"
       id="SVGID_64_-7">
      <stop
         id="stop613-4"
         style="stop-color:#ff0000;stop-opacity:1;"
         offset="0" />
      <stop
         id="stop615-0"
         style="stop-color:#c80000;stop-opacity:1;"
         offset="0.5" />
      <stop
         id="stop617-9"
         style="stop-color:#560000;stop-opacity:1;"
         offset="1" />
    </linearGradient>
    <linearGradient
       y2="866.90271"
       x2="60.86042"
       y1="866.90271"
       x1="-175.71809"
       gradientTransform="matrix(-0.11225893,-0.09311821,-0.09825989,0.10638471,97.219649,-79.066769)"
       gradientUnits="userSpaceOnUse"
       id="linearGradient8651"
       xlink:href="#SVGID_64_-7"
       inkscape:collect="always" />
  </defs>
  <sodipodi:namedview
     pagecolor="#ffffff"
     bordercolor="#666666"
     borderopacity="1"
     objecttolerance="10"
     gridtolerance="10"
     guidetolerance="10"
     inkscape:pageopacity="0"
     inkscape:pageshadow="2"
     inkscape:window-width="953"
     inkscape:window-height="736"
     id="namedview8488"
     showgrid="false"
     inkscape:zoom="0.4609375"
     inkscape:cx="256"
     inkscape:cy="256"
     inkscape:window-x="0"
     inkscape:window-y="0"
     inkscape:window-maximized="0"
     inkscape:current-layer="svg8480" />
  <g
     id="g5076"
     transform="matrix(10.825821,0,0,8.2902103,-4.8487144,92.851106)">
    <path
       id="path3357"
       d="m 11.464929,20.808276 c -0.257944,-2.261071 -0.04079,-4.607797 0.724,-6.915078 0.01172,-0.03535 0.0236,-0.07033 0.03554,-0.105562 2.893303,-6.382331 12.012561,-9.370892 21.032658,-6.685741 2.195059,0.653435 4.191797,1.587466 5.93652,2.722467 l 0.605626,-2.198567 c 2.891052,4.090583 5.038414,9.074772 5.923482,14.401984 -2.17581,-1.647384 -6.527154,-2.952667 -9.160064,-2.660221 l 1.166486,-4.234633 c -1.805966,-1.14537 -3.89846,-2.106309 -6.205793,-2.793167 -8.982506,-2.673957 -17.815592,-0.190224 -19.715411,5.541315 -0.315223,0.950994 -0.419556,1.930131 -0.333835,2.91723 -0.0024,0.0035 -0.0064,0.0065 -0.0092,0.01 z"
       style="fill:url(#linearGradient5080);fill-opacity:1;stroke:none"
       inkscape:connector-curvature="0" />
    <path
       id="path3357-4"
       d="m 36.925576,16.719291 c 0.257944,2.261071 0.04079,4.607791 -0.724001,6.915065 -0.01171,0.03536 -0.0236,0.07034 -0.03554,0.10557 -2.893306,6.382325 -12.012563,9.370888 -21.032661,6.685744 -2.19506,-0.653437 -4.191798,-1.587474 -5.9365201,-2.72247 L 8.5912281,29.901767 C 5.7001756,25.811178 3.5528135,20.826987 2.6677457,15.499778 c 2.1758102,1.64739 6.5271538,2.952666 9.1600643,2.660218 l -1.166486,4.234643 c 1.805965,1.145373 3.89846,2.1063 6.205793,2.79316 8.982507,2.673961 17.815592,0.190228 19.715412,-5.541318 0.315221,-0.950988 0.419556,-1.930125 0.333835,-2.917222 0.0024,-0.0034 0.0064,-0.0065 0.0092,-0.0099 z"
       style="fill:url(#linearGradient8651);fill-opacity:1;stroke:none"
       inkscape:connector-curvature="0" />
  </g>
</svg>
